<?xml version="1.0" encoding="utf-8"?>
<!-- Generator: Adobe Illustrator 16.0.0, SVG Export Plug-In . SVG Version: 6.00 Build 0)  -->
<!DOCTYPE svg PUBLIC "-//W3C//DTD SVG 1.1//EN" "http://www.w3.org/Graphics/SVG/1.1/DTD/svg11.dtd">
<svg version="1.1" id="图层_1" xmlns="http://www.w3.org/2000/svg" xmlns:xlink="http://www.w3.org/1999/xlink" x="0px" y="0px"
	 width="130px" height="130px" viewBox="0 0 130 130" enable-background="new 0 0 130 130" xml:space="preserve">
<g>
	<g>
		
			<linearGradient id="SVGID_2_" gradientUnits="userSpaceOnUse" x1="1628.4463" y1="-8152.4531" x2="1628.4463" y2="-8262.9668" gradientTransform="matrix(-1 0 0 -1 1693.4453 -8142.709)">
			<stop  offset="0.2151" style="stop-color:#FF562D"/>
			<stop  offset="1" style="stop-color:#FF8B43;stop-opacity:0"/>
		</linearGradient>
		<polygon opacity="0.7" fill="url(#SVGID_2_)" points="96.901,9.743 128.804,64.999 96.901,120.257 33.101,120.257 1.196,64.999 
			33.101,9.743 		"/>
		<linearGradient id="SVGID_4_" gradientUnits="userSpaceOnUse" x1="64.999" y1="13.2178" x2="64.999" y2="116.6162">
			<stop  offset="0" style="stop-color:#FFFFFF;stop-opacity:0.6"/>
			<stop  offset="1" style="stop-color:#FFFFFF;stop-opacity:0"/>
		</linearGradient>
		<polygon opacity="0.4" fill="url(#SVGID_4_)" points="35.149,116.616 5.302,64.917 35.149,13.218 94.847,13.218 124.696,64.917 
			94.847,116.616 		"/>
		<g>
			<path fill="#FFFFFF" d="M35.149,13.218c0,0,3.731-0.334,9.328-0.572c2.798-0.128,6.063-0.234,9.561-0.307
				c1.749-0.025,3.556-0.082,5.393-0.086c1.836-0.012,3.702-0.023,5.567-0.035c1.865,0.012,3.731,0.023,5.567,0.034
				c1.837,0.001,3.644,0.06,5.393,0.085c3.498,0.07,6.763,0.178,9.561,0.307c5.597,0.238,9.328,0.574,9.328,0.574
				s-3.731,0.336-9.328,0.574c-2.798,0.129-6.063,0.236-9.561,0.307c-1.749,0.025-3.556,0.084-5.393,0.085
				c-1.836,0.011-3.702,0.022-5.567,0.034c-1.865-0.012-3.731-0.023-5.567-0.035c-1.837-0.004-3.644-0.061-5.393-0.086
				c-3.498-0.072-6.763-0.179-9.561-0.307C38.881,13.552,35.149,13.218,35.149,13.218z"/>
		</g>
		<g opacity="0.5">
			<path fill="#FFFFFF" d="M34.817,116.294c0,0-0.492-0.785-1.353-2.159c-0.842-1.385-2.079-3.343-3.502-5.729
				c-1.42-2.387-3.114-5.15-4.86-8.152c-1.747-2.999-3.611-6.199-5.476-9.398c-1.826-3.223-3.651-6.445-5.362-9.465
				c-1.715-3.02-3.247-5.876-4.595-8.305c-1.346-2.431-2.412-4.486-3.185-5.912c-0.753-1.436-1.184-2.256-1.184-2.256
				s0.492,0.785,1.353,2.159c0.842,1.385,2.081,3.343,3.503,5.729c1.419,2.388,3.115,5.149,4.859,8.152
				c1.748,3,3.612,6.2,5.476,9.399c1.825,3.223,3.65,6.445,5.361,9.466c1.713,3.021,3.247,5.876,4.595,8.304
				c1.345,2.432,2.413,4.487,3.185,5.912C34.387,115.474,34.817,116.294,34.817,116.294z"/>
		</g>
		<g opacity="0.5">
			<path fill="#FFFFFF" d="M95.179,116.294c0,0,0.431-0.82,1.185-2.256c0.772-1.425,1.84-3.48,3.185-5.912
				c1.348-2.428,2.882-5.283,4.595-8.304c1.712-3.021,3.536-6.243,5.362-9.466c1.864-3.199,3.729-6.399,5.476-9.399
				c1.744-3.003,3.44-5.765,4.859-8.152c1.423-2.386,2.661-4.344,3.504-5.729c0.86-1.374,1.353-2.159,1.353-2.159
				s-0.431,0.82-1.184,2.256c-0.772,1.426-1.84,3.481-3.185,5.912c-1.349,2.429-2.88,5.285-4.596,8.305
				c-1.711,3.02-3.536,6.242-5.362,9.465c-1.864,3.199-3.729,6.399-5.477,9.398c-1.746,3.002-3.44,5.766-4.859,8.152
				c-1.423,2.387-2.661,4.345-3.503,5.729C95.671,115.509,95.179,116.294,95.179,116.294z"/>
		</g>
		<g opacity="0.5">
			<linearGradient id="SVGID_6_" gradientUnits="userSpaceOnUse" x1="64.9307" y1="116.6162" x2="64.9307" y2="13.2178">
				<stop  offset="0" style="stop-color:#000000;stop-opacity:0"/>
				<stop  offset="0.2626" style="stop-color:#020101;stop-opacity:0.2101"/>
				<stop  offset="0.4001" style="stop-color:#0A0603;stop-opacity:0.3201"/>
				<stop  offset="0.5086" style="stop-color:#180D06;stop-opacity:0.4069"/>
				<stop  offset="0.6019" style="stop-color:#2B170B;stop-opacity:0.4815"/>
				<stop  offset="0.6856" style="stop-color:#442512;stop-opacity:0.5485"/>
				<stop  offset="0.7623" style="stop-color:#62351A;stop-opacity:0.6098"/>
				<stop  offset="0.8337" style="stop-color:#864923;stop-opacity:0.667"/>
				<stop  offset="0.9009" style="stop-color:#B1602E;stop-opacity:0.7207"/>
				<stop  offset="0.9625" style="stop-color:#DF7A3B;stop-opacity:0.77"/>
				<stop  offset="1" style="stop-color:#FF8B43;stop-opacity:0.8"/>
			</linearGradient>
			<polygon opacity="0.4" fill="url(#SVGID_6_)" points="35.081,116.616 5.233,64.917 35.081,13.218 94.778,13.218 124.628,64.917 
				94.778,116.616 			"/>
			<linearGradient id="SVGID_8_" gradientUnits="userSpaceOnUse" x1="64.9297" y1="13.2178" x2="64.9297" y2="13.2178">
				<stop  offset="0" style="stop-color:#000000;stop-opacity:0"/>
				<stop  offset="0.2626" style="stop-color:#020101;stop-opacity:0.2101"/>
				<stop  offset="0.4001" style="stop-color:#0A0603;stop-opacity:0.3201"/>
				<stop  offset="0.5086" style="stop-color:#180D06;stop-opacity:0.4069"/>
				<stop  offset="0.6019" style="stop-color:#2B170B;stop-opacity:0.4815"/>
				<stop  offset="0.6856" style="stop-color:#442512;stop-opacity:0.5485"/>
				<stop  offset="0.7623" style="stop-color:#62351A;stop-opacity:0.6098"/>
				<stop  offset="0.8337" style="stop-color:#864923;stop-opacity:0.667"/>
				<stop  offset="0.9009" style="stop-color:#B1602E;stop-opacity:0.7207"/>
				<stop  offset="0.9625" style="stop-color:#DF7A3B;stop-opacity:0.77"/>
				<stop  offset="1" style="stop-color:#FF8B43;stop-opacity:0.8"/>
			</linearGradient>
			<line fill="url(#SVGID_8_)" x1="35.081" y1="13.218" x2="94.778" y2="13.218"/>
			<linearGradient id="SVGID_10_" gradientUnits="userSpaceOnUse" x1="19.9912" y1="116.2939" x2="19.9912" y2="64.917">
				<stop  offset="0" style="stop-color:#000000;stop-opacity:0"/>
				<stop  offset="0.2626" style="stop-color:#020101;stop-opacity:0.2101"/>
				<stop  offset="0.4001" style="stop-color:#0A0603;stop-opacity:0.3201"/>
				<stop  offset="0.5086" style="stop-color:#180D06;stop-opacity:0.4069"/>
				<stop  offset="0.6019" style="stop-color:#2B170B;stop-opacity:0.4815"/>
				<stop  offset="0.6856" style="stop-color:#442512;stop-opacity:0.5485"/>
				<stop  offset="0.7623" style="stop-color:#62351A;stop-opacity:0.6098"/>
				<stop  offset="0.8337" style="stop-color:#864923;stop-opacity:0.667"/>
				<stop  offset="0.9009" style="stop-color:#B1602E;stop-opacity:0.7207"/>
				<stop  offset="0.9625" style="stop-color:#DF7A3B;stop-opacity:0.77"/>
				<stop  offset="1" style="stop-color:#FF8B43;stop-opacity:0.8"/>
			</linearGradient>
			<line opacity="0.5" fill="url(#SVGID_10_)" x1="34.749" y1="116.294" x2="5.233" y2="64.917"/>
			<linearGradient id="SVGID_11_" gradientUnits="userSpaceOnUse" x1="109.8691" y1="116.2939" x2="109.8691" y2="64.917">
				<stop  offset="0" style="stop-color:#000000;stop-opacity:0"/>
				<stop  offset="0.2626" style="stop-color:#020101;stop-opacity:0.2101"/>
				<stop  offset="0.4001" style="stop-color:#0A0603;stop-opacity:0.3201"/>
				<stop  offset="0.5086" style="stop-color:#180D06;stop-opacity:0.4069"/>
				<stop  offset="0.6019" style="stop-color:#2B170B;stop-opacity:0.4815"/>
				<stop  offset="0.6856" style="stop-color:#442512;stop-opacity:0.5485"/>
				<stop  offset="0.7623" style="stop-color:#62351A;stop-opacity:0.6098"/>
				<stop  offset="0.8337" style="stop-color:#864923;stop-opacity:0.667"/>
				<stop  offset="0.9009" style="stop-color:#B1602E;stop-opacity:0.7207"/>
				<stop  offset="0.9625" style="stop-color:#DF7A3B;stop-opacity:0.77"/>
				<stop  offset="1" style="stop-color:#FF8B43;stop-opacity:0.8"/>
			</linearGradient>
			<line opacity="0.5" fill="url(#SVGID_11_)" x1="95.11" y1="116.294" x2="124.628" y2="64.917"/>
		</g>
		<g opacity="0.7">
			<linearGradient id="SVGID_12_" gradientUnits="userSpaceOnUse" x1="64.9307" y1="116.6162" x2="64.9307" y2="13.2178">
				<stop  offset="0.7796" style="stop-color:#FF562D"/>
				<stop  offset="1" style="stop-color:#FF8B43;stop-opacity:0.8"/>
			</linearGradient>
			<polygon opacity="0.4" fill="url(#SVGID_12_)" points="35.081,116.616 5.233,64.917 35.081,13.218 94.778,13.218 124.628,64.917 
				94.778,116.616 			"/>
			<linearGradient id="SVGID_13_" gradientUnits="userSpaceOnUse" x1="64.9297" y1="13.2178" x2="64.9297" y2="13.2178">
				<stop  offset="0.7796" style="stop-color:#FF562D"/>
				<stop  offset="1" style="stop-color:#FF8B43;stop-opacity:0.8"/>
			</linearGradient>
			<line fill="url(#SVGID_13_)" x1="35.081" y1="13.218" x2="94.778" y2="13.218"/>
			<linearGradient id="SVGID_14_" gradientUnits="userSpaceOnUse" x1="19.9912" y1="116.2939" x2="19.9912" y2="64.917">
				<stop  offset="0.7796" style="stop-color:#FF562D"/>
				<stop  offset="1" style="stop-color:#FF8B43;stop-opacity:0.8"/>
			</linearGradient>
			<line opacity="0.5" fill="url(#SVGID_14_)" x1="34.749" y1="116.294" x2="5.233" y2="64.917"/>
			<linearGradient id="SVGID_15_" gradientUnits="userSpaceOnUse" x1="109.8691" y1="116.2939" x2="109.8691" y2="64.917">
				<stop  offset="0.7796" style="stop-color:#FF562D"/>
				<stop  offset="1" style="stop-color:#FF8B43;stop-opacity:0.8"/>
			</linearGradient>
			<line opacity="0.5" fill="url(#SVGID_15_)" x1="95.11" y1="116.294" x2="124.628" y2="64.917"/>
		</g>
		<g opacity="0.5">
			<linearGradient id="SVGID_16_" gradientUnits="userSpaceOnUse" x1="64.9307" y1="116.6162" x2="64.9307" y2="13.2178">
				<stop  offset="0" style="stop-color:#000000"/>
				<stop  offset="0.2179" style="stop-color:#030101;stop-opacity:0.9564"/>
				<stop  offset="0.3535" style="stop-color:#0B0603;stop-opacity:0.9293"/>
				<stop  offset="0.4668" style="stop-color:#1A0E07;stop-opacity:0.9066"/>
				<stop  offset="0.5677" style="stop-color:#2E190C;stop-opacity:0.8865"/>
				<stop  offset="0.6604" style="stop-color:#492813;stop-opacity:0.8679"/>
				<stop  offset="0.7471" style="stop-color:#6A3A1C;stop-opacity:0.8506"/>
				<stop  offset="0.8292" style="stop-color:#914F26;stop-opacity:0.8342"/>
				<stop  offset="0.9076" style="stop-color:#BE6832;stop-opacity:0.8185"/>
				<stop  offset="0.9805" style="stop-color:#F0833F;stop-opacity:0.8039"/>
				<stop  offset="1" style="stop-color:#FF8B43;stop-opacity:0.8"/>
			</linearGradient>
			<polygon opacity="0.4" fill="url(#SVGID_16_)" points="35.081,116.616 5.233,64.917 35.081,13.218 94.778,13.218 124.628,64.917 
				94.778,116.616 80.591,116.616 41.257,116.616 			"/>
			<linearGradient id="SVGID_17_" gradientUnits="userSpaceOnUse" x1="64.9297" y1="13.2178" x2="64.9297" y2="13.2178">
				<stop  offset="0" style="stop-color:#000000"/>
				<stop  offset="0.2179" style="stop-color:#030101;stop-opacity:0.9564"/>
				<stop  offset="0.3535" style="stop-color:#0B0603;stop-opacity:0.9293"/>
				<stop  offset="0.4668" style="stop-color:#1A0E07;stop-opacity:0.9066"/>
				<stop  offset="0.5677" style="stop-color:#2E190C;stop-opacity:0.8865"/>
				<stop  offset="0.6604" style="stop-color:#492813;stop-opacity:0.8679"/>
				<stop  offset="0.7471" style="stop-color:#6A3A1C;stop-opacity:0.8506"/>
				<stop  offset="0.8292" style="stop-color:#914F26;stop-opacity:0.8342"/>
				<stop  offset="0.9076" style="stop-color:#BE6832;stop-opacity:0.8185"/>
				<stop  offset="0.9805" style="stop-color:#F0833F;stop-opacity:0.8039"/>
				<stop  offset="1" style="stop-color:#FF8B43;stop-opacity:0.8"/>
			</linearGradient>
			<line fill="url(#SVGID_17_)" x1="35.081" y1="13.218" x2="94.778" y2="13.218"/>
			<linearGradient id="SVGID_18_" gradientUnits="userSpaceOnUse" x1="19.9912" y1="116.2939" x2="19.9912" y2="64.917">
				<stop  offset="0" style="stop-color:#000000"/>
				<stop  offset="0.2179" style="stop-color:#030101;stop-opacity:0.9564"/>
				<stop  offset="0.3535" style="stop-color:#0B0603;stop-opacity:0.9293"/>
				<stop  offset="0.4668" style="stop-color:#1A0E07;stop-opacity:0.9066"/>
				<stop  offset="0.5677" style="stop-color:#2E190C;stop-opacity:0.8865"/>
				<stop  offset="0.6604" style="stop-color:#492813;stop-opacity:0.8679"/>
				<stop  offset="0.7471" style="stop-color:#6A3A1C;stop-opacity:0.8506"/>
				<stop  offset="0.8292" style="stop-color:#914F26;stop-opacity:0.8342"/>
				<stop  offset="0.9076" style="stop-color:#BE6832;stop-opacity:0.8185"/>
				<stop  offset="0.9805" style="stop-color:#F0833F;stop-opacity:0.8039"/>
				<stop  offset="1" style="stop-color:#FF8B43;stop-opacity:0.8"/>
			</linearGradient>
			<line opacity="0.5" fill="url(#SVGID_18_)" x1="34.749" y1="116.294" x2="5.233" y2="64.917"/>
			<linearGradient id="SVGID_19_" gradientUnits="userSpaceOnUse" x1="109.8691" y1="116.2939" x2="109.8691" y2="64.917">
				<stop  offset="0" style="stop-color:#000000"/>
				<stop  offset="0.2179" style="stop-color:#030101;stop-opacity:0.9564"/>
				<stop  offset="0.3535" style="stop-color:#0B0603;stop-opacity:0.9293"/>
				<stop  offset="0.4668" style="stop-color:#1A0E07;stop-opacity:0.9066"/>
				<stop  offset="0.5677" style="stop-color:#2E190C;stop-opacity:0.8865"/>
				<stop  offset="0.6604" style="stop-color:#492813;stop-opacity:0.8679"/>
				<stop  offset="0.7471" style="stop-color:#6A3A1C;stop-opacity:0.8506"/>
				<stop  offset="0.8292" style="stop-color:#914F26;stop-opacity:0.8342"/>
				<stop  offset="0.9076" style="stop-color:#BE6832;stop-opacity:0.8185"/>
				<stop  offset="0.9805" style="stop-color:#F0833F;stop-opacity:0.8039"/>
				<stop  offset="1" style="stop-color:#FF8B43;stop-opacity:0.8"/>
			</linearGradient>
			<line opacity="0.5" fill="url(#SVGID_19_)" x1="95.11" y1="116.294" x2="124.628" y2="64.917"/>
		</g>
		<radialGradient id="SVGID_20_" cx="64.8184" cy="39.3057" r="28.2274" gradientUnits="userSpaceOnUse">
			<stop  offset="0" style="stop-color:#FFFFFF;stop-opacity:0"/>
			<stop  offset="0.9144" style="stop-color:#FFFFFF;stop-opacity:0.1829"/>
			<stop  offset="1" style="stop-color:#FFFFFF;stop-opacity:0.2"/>
		</radialGradient>
		<polyline opacity="0.5" fill="url(#SVGID_20_)" points="64.819,65.394 34.603,13.218 95.034,13.218 64.819,65.394 		"/>
		
			<radialGradient id="SVGID_21_" cx="2703.2217" cy="-10310.6982" r="28.2284" gradientTransform="matrix(-0.5033 -0.8641 0.8641 -0.5033 10312.3252 -2774.9961)" gradientUnits="userSpaceOnUse">
			<stop  offset="0" style="stop-color:#FFFFFF;stop-opacity:0"/>
			<stop  offset="0.9144" style="stop-color:#FFFFFF;stop-opacity:0.1829"/>
			<stop  offset="1" style="stop-color:#FFFFFF;stop-opacity:0.2"/>
		</radialGradient>
		<polyline opacity="0.5" fill="url(#SVGID_21_)" points="64.862,65.394 34.983,117.765 4.567,65.544 64.862,65.394 		"/>
		
			<radialGradient id="SVGID_22_" cx="-1607.3647" cy="-2909.9834" r="28.2281" gradientTransform="matrix(0.5033 -0.8641 -0.8641 -0.5033 -1617.9868 -2774.9961)" gradientUnits="userSpaceOnUse">
			<stop  offset="0" style="stop-color:#FFFFFF;stop-opacity:0"/>
			<stop  offset="0.9144" style="stop-color:#FFFFFF;stop-opacity:0.1829"/>
			<stop  offset="1" style="stop-color:#FFFFFF;stop-opacity:0.2"/>
		</radialGradient>
		<polyline opacity="0.5" fill="url(#SVGID_22_)" points="64.999,65.394 94.88,117.765 125.294,65.544 64.999,65.394 		"/>
	</g>
	<radialGradient id="SVGID_23_" cx="65.0742" cy="66" r="55.9121" gradientUnits="userSpaceOnUse">
		<stop  offset="0" style="stop-color:#000000"/>
		<stop  offset="0.1543" style="stop-color:#030201;stop-opacity:0.8457"/>
		<stop  offset="0.2837" style="stop-color:#0E0704;stop-opacity:0.7163"/>
		<stop  offset="0.4042" style="stop-color:#1F1108;stop-opacity:0.5958"/>
		<stop  offset="0.5192" style="stop-color:#381E0F;stop-opacity:0.4808"/>
		<stop  offset="0.6305" style="stop-color:#573017;stop-opacity:0.3695"/>
		<stop  offset="0.7389" style="stop-color:#7E4521;stop-opacity:0.2611"/>
		<stop  offset="0.845" style="stop-color:#AC5E2D;stop-opacity:0.155"/>
		<stop  offset="0.9466" style="stop-color:#E07A3B;stop-opacity:0.0534"/>
		<stop  offset="1" style="stop-color:#FF8B43;stop-opacity:0"/>
	</radialGradient>
	<polygon opacity="0.3" fill="url(#SVGID_23_)" points="35.188,117.765 5.302,66.001 35.188,14.235 94.958,14.235 124.847,66.001 
		94.958,117.765 	"/>
</g>
</svg>
