<?xml version="1.0" encoding="utf-8"?>
<!-- Generator: Adobe Illustrator 16.0.0, SVG Export Plug-In . SVG Version: 6.00 Build 0)  -->
<!DOCTYPE svg PUBLIC "-//W3C//DTD SVG 1.1//EN" "http://www.w3.org/Graphics/SVG/1.1/DTD/svg11.dtd">
<svg version="1.1" id="图层_1" xmlns="http://www.w3.org/2000/svg" xmlns:xlink="http://www.w3.org/1999/xlink" x="0px" y="0px"
	 width="130px" height="130px" viewBox="0 0 130 130" enable-background="new 0 0 130 130" xml:space="preserve">
<g>
	<g>
		<linearGradient id="SVGID_2_" gradientUnits="userSpaceOnUse" x1="65" y1="12.7256" x2="65" y2="116.126">
			<stop  offset="0" style="stop-color:#FFFFFF;stop-opacity:0.6"/>
			<stop  offset="1" style="stop-color:#FFFFFF;stop-opacity:0"/>
		</linearGradient>
		<polygon opacity="0.4" fill="url(#SVGID_2_)" points="35.151,116.126 5.302,64.427 35.151,12.726 94.849,12.726 124.698,64.427 
			94.849,116.126 		"/>
		<g>
			<path fill="#FFFFFF" d="M35.151,12.726c0,0,3.731-0.334,9.328-0.572c2.798-0.128,6.063-0.234,9.561-0.307
				c1.749-0.025,3.556-0.082,5.393-0.086c1.836-0.012,3.702-0.023,5.567-0.035c1.865,0.012,3.731,0.023,5.567,0.034
				c1.837,0.001,3.644,0.06,5.393,0.085c3.498,0.07,6.763,0.178,9.561,0.307c5.597,0.238,9.328,0.574,9.328,0.574
				s-3.731,0.336-9.328,0.574c-2.798,0.129-6.063,0.236-9.561,0.307c-1.749,0.025-3.556,0.084-5.393,0.085
				c-1.836,0.011-3.702,0.022-5.567,0.034c-1.865-0.012-3.731-0.023-5.567-0.035c-1.837-0.004-3.644-0.061-5.393-0.086
				c-3.498-0.072-6.763-0.179-9.561-0.307C38.883,13.06,35.151,12.726,35.151,12.726z"/>
		</g>
		<g opacity="0.5">
			<path fill="#FFFFFF" d="M34.819,115.802c0,0-0.492-0.785-1.353-2.159c-0.842-1.385-2.08-3.343-3.503-5.729
				c-1.419-2.388-3.113-5.151-4.859-8.151c-1.748-3-3.612-6.2-5.477-9.399c-1.826-3.222-3.651-6.444-5.362-9.465
				c-1.716-3.019-3.247-5.876-4.596-8.304c-1.345-2.431-2.412-4.487-3.185-5.912c-0.753-1.436-1.184-2.256-1.184-2.256
				s0.492,0.785,1.353,2.159c0.843,1.385,2.081,3.342,3.504,5.728c1.419,2.389,3.115,5.15,4.859,8.152
				c1.747,3,3.611,6.199,5.476,9.399c1.826,3.223,3.65,6.444,5.362,9.466c1.713,3.02,3.247,5.875,4.595,8.304
				c1.345,2.431,2.412,4.486,3.185,5.911C34.389,114.981,34.819,115.802,34.819,115.802z"/>
		</g>
		<g opacity="0.5">
			<path fill="#FFFFFF" d="M95.181,115.802c0,0,0.431-0.82,1.185-2.256c0.772-1.425,1.84-3.48,3.185-5.911
				c1.348-2.429,2.882-5.284,4.595-8.304c1.712-3.021,3.536-6.243,5.362-9.466c1.864-3.2,3.729-6.399,5.476-9.399
				c1.744-3.002,3.44-5.764,4.859-8.152c1.423-2.386,2.661-4.343,3.504-5.728c0.86-1.374,1.353-2.159,1.353-2.159
				s-0.431,0.82-1.184,2.256c-0.772,1.425-1.84,3.481-3.185,5.912c-1.349,2.428-2.88,5.285-4.596,8.304
				c-1.711,3.021-3.536,6.243-5.362,9.465c-1.864,3.199-3.729,6.399-5.477,9.399c-1.746,3-3.44,5.764-4.859,8.151
				c-1.423,2.386-2.661,4.344-3.503,5.729C95.673,115.017,95.181,115.802,95.181,115.802z"/>
		</g>
	</g>
	<radialGradient id="SVGID_4_" cx="64.8867" cy="38.8145" r="28.2279" gradientUnits="userSpaceOnUse">
		<stop  offset="0" style="stop-color:#FFFFFF;stop-opacity:0"/>
		<stop  offset="0.9144" style="stop-color:#FFFFFF;stop-opacity:0.1829"/>
		<stop  offset="1" style="stop-color:#FFFFFF;stop-opacity:0.2"/>
	</radialGradient>
	<polyline opacity="0.5" fill="url(#SVGID_4_)" points="64.888,64.903 34.671,12.726 95.103,12.726 64.888,64.903 	"/>
	
		<radialGradient id="SVGID_6_" cx="2703.6123" cy="-10310.3906" r="28.2292" gradientTransform="matrix(-0.5033 -0.8641 0.8641 -0.5033 10312.3252 -2774.9961)" gradientUnits="userSpaceOnUse">
		<stop  offset="0" style="stop-color:#FFFFFF;stop-opacity:0"/>
		<stop  offset="0.9144" style="stop-color:#FFFFFF;stop-opacity:0.1829"/>
		<stop  offset="1" style="stop-color:#FFFFFF;stop-opacity:0.2"/>
	</radialGradient>
	<polyline opacity="0.5" fill="url(#SVGID_6_)" points="64.933,64.903 35.052,117.274 4.636,65.052 64.933,64.903 	"/>
	
		<radialGradient id="SVGID_8_" cx="-1606.9053" cy="-2909.7969" r="28.2286" gradientTransform="matrix(0.5033 -0.8641 -0.8641 -0.5033 -1617.9868 -2774.9961)" gradientUnits="userSpaceOnUse">
		<stop  offset="0" style="stop-color:#FFFFFF;stop-opacity:0"/>
		<stop  offset="0.9144" style="stop-color:#FFFFFF;stop-opacity:0.1829"/>
		<stop  offset="1" style="stop-color:#FFFFFF;stop-opacity:0.2"/>
	</radialGradient>
	<polyline opacity="0.5" fill="url(#SVGID_8_)" points="65.069,64.903 94.948,117.274 125.364,65.052 65.069,64.903 	"/>
</g>
</svg>
